<?xml version="1.0" encoding="UTF-8" standalone="no"?>
<!-- Created with Inkscape (http://www.inkscape.org/) -->

<svg
   width="1280"
   height="640"
   viewBox="0 0 1280 640"
   version="1.1"
   id="svg5"
   xml:space="preserve"
   inkscape:export-filename="logo.png"
   inkscape:export-xdpi="96"
   inkscape:export-ydpi="96"
   inkscape:version="1.2.1 (9c6d41e4, 2022-07-14)"
   sodipodi:docname="logo.svg"
   xmlns:inkscape="http://www.inkscape.org/namespaces/inkscape"
   xmlns:sodipodi="http://sodipodi.sourceforge.net/DTD/sodipodi-0.dtd"
   xmlns="http://www.w3.org/2000/svg"
   xmlns:svg="http://www.w3.org/2000/svg"><sodipodi:namedview
     id="namedview7"
     pagecolor="#ffffff"
     bordercolor="#666666"
     borderopacity="1.0"
     inkscape:showpageshadow="2"
     inkscape:pageopacity="0.0"
     inkscape:pagecheckerboard="0"
     inkscape:deskcolor="#d1d1d1"
     inkscape:document-units="px"
     showgrid="false"
     inkscape:zoom="0.71895385"
     inkscape:cx="504.90028"
     inkscape:cy="269.14106"
     inkscape:window-width="1920"
     inkscape:window-height="1027"
     inkscape:window-x="0"
     inkscape:window-y="25"
     inkscape:window-maximized="1"
     inkscape:current-layer="g6394" /><defs
     id="defs2"><rect
       x="136.30917"
       y="-221.15467"
       width="488.20936"
       height="194.72738"
       id="rect23634" /><rect
       x="-45.900025"
       y="-368.59111"
       width="1203.137"
       height="164.12736"
       id="rect16308" /><rect
       x="258.70923"
       y="112.6637"
       width="390.84567"
       height="190.55465"
       id="rect16252" /><path
       id="B"
       d="m 65.605,29.258 c -0.877,0.404 -1.722,0.875 -2.526,1.41 v 6.215 h -2.444 v -9.645 h 2.04 l 0.158,1.067 a 10.8,10.8 0 0 1 2.526,-1.263 z" /><path
       d="m 180.82764,252.60527 c 4.01631,1.56489 8.59642,1.46428 12.65058,-0.4861 l 52.50092,-25.26232 c 5.51645,-2.65463 9.02475,-8.23882 9.02475,-14.36389 V 41.197184 c 0,-6.125273 -3.5083,-11.708563 -9.02475,-14.363193 L 193.47822,1.5706855 c -5.32021,-2.55994221 -11.54689,-1.93291554 -16.21565,1.4616604 -0.6674,0.4849258 -1.30292,1.0263508 -1.89859,1.6230201 L 74.856589,96.349844 31.0778,63.118156 C 27.00242,60.02464 21.302087,60.27805 17.517072,63.7211 L 3.4757806,76.493707 c -4.6298048,4.211549 -4.6351141,11.495197 -0.011465,15.71352 L 41.430759,126.84453 3.4643154,161.48222 c -4.6236489,4.21852 -4.6183396,11.50207 0.011465,15.71362 l 14.0412916,12.77211 c 3.785015,3.44355 9.485348,3.69656 13.560728,0.60364 L 74.856589,157.3394 175.36398,249.03422 c 1.58979,1.59079 3.4565,2.78911 5.46366,3.57105 z m 10.46412,-183.649318 -76.2621,57.888578 76.2621,57.88887 z"
       id="path-1" /><linearGradient
       x1="127.17294"
       y1="0.00016458001"
       x2="127.17294"
       y2="254.3456"
       id="linearGradient-3"
       gradientTransform="scale(1.002588,0.99741863)"
       gradientUnits="userSpaceOnUse"><stop
         stop-color="#FFFFFF"
         offset="0%"
         id="stop18241" /><stop
         stop-color="#FFFFFF"
         stop-opacity="0"
         offset="100%"
         id="stop18243" /></linearGradient><rect
       x="136.30917"
       y="-221.15466"
       width="488.20935"
       height="194.72739"
       id="rect23634-8" /></defs><g
     inkscape:label="Layer 1"
     inkscape:groupmode="layer"
     id="layer1"
     transform="translate(-0.72746625,0.44215659)"><g
       id="g6394"
       transform="translate(41.911976,17.46332)"><rect
         style="opacity:1;fill:#efb466;fill-opacity:1;stroke:#ffffff;stroke-width:3.02865"
         id="rect10922-84-7"
         width="148.31596"
         height="642.71393"
         x="717.65808"
         y="-19.03014" /><rect
         style="opacity:1;fill:#e8c568;fill-opacity:1;stroke:#ffffff;stroke-width:3.79364"
         id="rect10922-8-1"
         width="232.24809"
         height="643.97693"
         x="485.34174"
         y="-19.72361" /><rect
         style="opacity:1;fill:#2a9d8f;fill-opacity:1;stroke:#ffffff;stroke-width:3.02911"
         id="rect10922-84"
         width="148.31551"
         height="642.91626"
         x="339.57733"
         y="-19.294668" /><g
         id="XMLID_140_"
         transform="matrix(16.134881,0,0,16.134881,340.68819,37.40309)"
         style="fill:#ffffff;fill-opacity:1"><circle
           class="st7"
           cx="16"
           cy="16"
           id="XMLID_22_"
           r="14.5"
           style="fill:#ffffff;fill-opacity:1" /></g><rect
         style="opacity:1;fill:#274754;fill-opacity:1;stroke:#ffffff;stroke-width:3.03856"
         id="rect10922"
         width="148.91447"
         height="644.32635"
         x="-42.163406"
         y="-19.2111" /><rect
         style="opacity:1;fill:#e86f50;fill-opacity:1;stroke:#ffffff;stroke-width:3.03665"
         id="rect10922-84-7-4"
         width="148.30797"
         height="646.1535"
         x="1095.743"
         y="-19.29088" /><rect
         style="opacity:1;fill:#287170;fill-opacity:1;stroke:#ffffff;stroke-width:3.79305"
         id="rect10922-8"
         width="232.24869"
         height="643.77472"
         x="108.13367"
         y="-19.64505" /><rect
         style="opacity:1;fill:#f4a462;fill-opacity:1;stroke:#ffffff;stroke-width:3.79954"
         id="rect10922-8-1-4"
         width="232.2422"
         height="645.99902"
         x="864.29883"
         y="-20.39102" /><g
         fill="none"
         fill-rule="evenodd"
         stroke="currentColor"
         stroke-linecap="round"
         stroke-linejoin="round"
         transform="matrix(15.81018,0,0,15.81018,463.55198,176.27646)"
         id="g24796" /><circle
         style="fill:#e86f50;fill-opacity:1;stroke:#ffffff;stroke-width:4.00843"
         id="path28002"
         cx="600.02496"
         cy="295.04922"
         r="229.38567" /><g
         id="g21354"
         transform="matrix(0.77568823,0,0,0.74549552,413.38199,111.65837)"><g
           id="g21285">
	<g
   id="g21257">
		<polygon
   style="fill:#d7e1f2"
   points="305.487,83.25 180.913,83.25 180.913,44.938 81.813,44.938 81.813,476.9 404.587,476.9 404.587,44.938 305.487,44.938 "
   id="polygon21253" />
		<rect
   x="180.91299"
   y="9.5"
   style="fill:#d71920"
   width="124.574"
   height="73.75"
   id="rect21255" />
	</g>
	<path
   d="m 404.587,35.439 h -89.6 V 9.5 c 0,-5.246 -4.254,-9.5 -9.5,-9.5 H 180.913 c -5.246,0 -9.5,4.254 -9.5,9.5 v 25.939 h -89.6 c -5.246,0 -9.5,4.254 -9.5,9.5 V 476.9 c 0,5.246 4.254,9.5 9.5,9.5 h 322.774 c 5.246,0 9.5,-4.254 9.5,-9.5 V 44.939 c 0,-5.247 -4.254,-9.5 -9.5,-9.5 z m -108.6,38.31 H 190.413 V 19 h 105.574 z m 99.1,393.651 H 91.313 V 54.439 h 80.1 V 83.25 c 0,5.246 4.254,9.5 9.5,9.5 h 124.574 c 5.246,0 9.5,-4.254 9.5,-9.5 V 54.439 h 80.1 z"
   id="path21259" />
	<path
   d="M 278.159,141.596 H 131.618 c -5.246,0 -9.5,-4.254 -9.5,-9.5 0,-5.246 4.254,-9.5 9.5,-9.5 h 146.541 c 5.246,0 9.5,4.254 9.5,9.5 0,5.246 -4.254,9.5 -9.5,9.5 z"
   id="path21261" />
	<path
   d="M 357.656,190.443 H 131.618 c -5.246,0 -9.5,-4.254 -9.5,-9.5 0,-5.246 4.254,-9.5 9.5,-9.5 h 226.038 c 5.246,0 9.5,4.254 9.5,9.5 0,5.246 -4.254,9.5 -9.5,9.5 z"
   id="path21263" />
	<path
   d="M 357.656,239.291 H 131.618 c -5.246,0 -9.5,-4.254 -9.5,-9.5 0,-5.246 4.254,-9.5 9.5,-9.5 h 226.038 c 5.246,0 9.5,4.254 9.5,9.5 0,5.246 -4.254,9.5 -9.5,9.5 z"
   id="path21265" />
	<path
   d="M 357.656,285.264 H 131.618 c -5.246,0 -9.5,-4.254 -9.5,-9.5 0,-5.246 4.254,-9.5 9.5,-9.5 h 226.038 c 5.246,0 9.5,4.254 9.5,9.5 0,5.246 -4.254,9.5 -9.5,9.5 z"
   id="path21267" />
	<path
   d="m 357.656,141.596 h -31.607 c -5.246,0 -9.5,-4.254 -9.5,-9.5 0,-5.246 4.254,-9.5 9.5,-9.5 h 31.607 c 5.246,0 9.5,4.254 9.5,9.5 0,5.246 -4.254,9.5 -9.5,9.5 z"
   id="path21269" />
	<path
   style="fill:#d7e1f2"
   d="m 334.972,339.48 c -9.281,-9.186 -22.102,-14.868 -36.265,-14.868 -13.363,0 -25.53,5.063 -34.657,13.351 l 36.227,35.858 z"
   id="path21271" />
	<g
   id="g21277">
		<path
   style="fill:#d71920"
   d="m 215.904,337.963 c -10.219,9.279 -16.629,22.603 -16.629,37.412 0,14.018 5.74,26.708 15.021,35.895 l 37.835,-37.449 z"
   id="path21273" />
		<path
   d="m 214.296,420.769 c -2.416,0 -4.832,-0.916 -6.683,-2.748 -11.503,-11.386 -17.838,-26.531 -17.838,-42.647 0,-16.852 7.196,-33.051 19.742,-44.444 3.738,-3.396 9.481,-3.271 13.069,0.281 l 36.227,35.857 c 1.803,1.784 2.818,4.216 2.818,6.752 0,2.536 -1.014,4.967 -2.817,6.752 l -37.835,37.449 c -1.851,1.833 -4.267,2.748 -6.683,2.748 z m 2.026,-69.026 c -4.861,6.879 -7.546,15.137 -7.546,23.631 0,7.818 2.188,15.306 6.277,21.779 l 23.575,-23.333 z"
   id="path21275" />
	</g>
	<path
   style="fill:#3b4d81"
   d="m 262.443,411.269 c 9.281,9.186 22.102,14.868 36.265,14.868 28.325,0 51.286,-22.727 51.286,-50.763 0,-14.018 -5.74,-26.708 -15.021,-35.895 z"
   id="path21279" />
	<path
   d="m 341.656,332.73 v 0 l -0.001,-0.001 v -10e-4 l -10e-4,-0.001 c -11.477,-11.36 -26.728,-17.616 -42.946,-17.616 -15.234,0 -29.811,5.618 -41.044,15.819 -1.931,1.753 -3.055,4.222 -3.112,6.829 -0.056,2.607 0.962,5.122 2.816,6.956 l 29.405,29.105 -31.013,30.697 c -1.803,1.784 -2.817,4.216 -2.817,6.752 0,2.536 1.014,4.967 2.817,6.752 11.477,11.36 26.73,17.616 42.949,17.616 33.517,0 60.786,-27.034 60.786,-60.263 -0.002,-16.115 -6.337,-31.259 -17.839,-42.644 z m -62.925,6.398 c 6.077,-3.272 12.922,-5.016 19.976,-5.016 7.885,0 15.437,2.142 21.973,6.147 l -20.403,20.195 z m 19.976,77.509 c -7.887,0 -15.438,-2.142 -21.973,-6.147 l 37.611,-37.228 19.87,-19.667 c 4.09,6.474 6.278,13.961 6.278,21.779 0,22.753 -18.745,41.263 -41.786,41.263 z"
   id="path21281" />
	<path
   d="m 247.95,53.2 h -32.3 c -5.246,0 -9.5,-4.254 -9.5,-9.5 0,-5.246 4.254,-9.5 9.5,-9.5 h 32.3 c 5.246,0 9.5,4.254 9.5,9.5 0,5.246 -4.254,9.5 -9.5,9.5 z"
   id="path21283" />
</g><g
           id="g21287">
</g><g
           id="g21289">
</g><g
           id="g21291">
</g><g
           id="g21293">
</g><g
           id="g21295">
</g><g
           id="g21297">
</g><g
           id="g21299">
</g><g
           id="g21301">
</g><g
           id="g21303">
</g><g
           id="g21305">
</g><g
           id="g21307">
</g><g
           id="g21309">
</g><g
           id="g21311">
</g><g
           id="g21313">
</g><g
           id="g21315">
</g></g></g></g><style
     id="style5576"><![CDATA[.C{fill-rule:evenodd}]]></style><style
     id="style16705"><![CDATA[.C{fill-rule:evenodd}]]></style><style
     type="text/css"
     id="style5966">
<![CDATA[
	.st0{fill:#E3F2FD;}
	.st1{fill:#80D8FF;}
	.st2{fill:#1AD2A4;}
	.st3{fill:#ECEFF1;}
	.st4{fill:#55FB9B;}
	.st5{fill:#BBDEFB;}
	.st6{fill:#C1AEE1;}
	.st7{fill:#FF5252;}
	.st8{fill:#FF8A80;}
	.st9{fill:#FFB74D;}
	.st10{fill:#FFF176;}
	.st11{fill:#FFFFFF;}
	.st12{fill:#65C7EA;}
	.st13{fill:#CFD8DC;}
	.st14{fill:#37474F;}
	.st15{fill:#78909C;}
	.st16{fill:#42A5F5;}
	.st17{fill:#455A64;}
]]>
</style></svg>
